<?xml version="1.0" encoding="utf-8"?>
<!-- Generator: Adobe Illustrator 17.1.0, SVG Export Plug-In . SVG Version: 6.00 Build 0)  -->
<!DOCTYPE svg PUBLIC "-//W3C//DTD SVG 1.1//EN" "http://www.w3.org/Graphics/SVG/1.1/DTD/svg11.dtd">
<svg version="1.1" id="Your_Icon" xmlns="http://www.w3.org/2000/svg" xmlns:xlink="http://www.w3.org/1999/xlink" x="0px" y="0px"
	 viewBox="0 0 100 100" enable-background="new 0 0 100 100" xml:space="preserve">
<g>
	<path d="M89.2,60.4l10-32.2c0.3-1.1,0.1-2.3-0.5-3.2c-0.7-0.9-1.8-1.5-2.9-1.5H23.6l-4.1-10.7c-0.5-1.4-1.9-2.3-3.4-2.3H4.3
		c-2,0-3.6,1.6-3.6,3.6c0,2,1.6,3.6,3.6,3.6h9.3l4,10.5c0,0,0,0.1,0,0.1l0.1,0.3l12.3,32.1c0,0,0,0,0,0l3.3,8.6
		c-3.5,1.8-5.8,5.4-5.8,9.5c0,5.9,4.8,10.7,10.7,10.7c5.9,0,10.7-4.8,10.7-10.7c0-1.2-0.2-2.3-0.6-3.4h21.9
		c-0.4,1.1-0.6,2.2-0.6,3.4c0,5.9,4.8,10.7,10.7,10.7c5.9,0,10.7-4.8,10.7-10.7c0-5.9-4.8-10.7-10.7-10.7H40.7l-2-5.2h46.9
		C87.3,63,88.7,61.9,89.2,60.4z M80.4,75.5c1.9,0,3.4,1.5,3.4,3.4c0,1.9-1.5,3.4-3.4,3.4c-1.9,0-3.4-1.5-3.4-3.4
		C77,77,78.6,75.5,80.4,75.5z M71.7,30.8h19L87.3,42H70.9L71.7,30.8z M26.4,30.8h20.5L47.8,42h-17L26.4,30.8z M41.6,78.9
		c0,1.9-1.5,3.4-3.4,3.4c-1.9,0-3.4-1.5-3.4-3.4c0-1.9,1.5-3.4,3.4-3.4C40.1,75.5,41.6,77,41.6,78.9z M36,55.7l-3.8-10h15.9l0.8,10
		C48.8,55.7,36,55.7,36,55.7z M66.1,55.7H52.5l-0.8-10h15.2L66.1,55.7z M67.2,42H51.4l-0.9-11.3h17.5L67.2,42z M69.8,55.7l0.8-10
		h15.5l-3.1,10C83,55.7,69.8,55.7,69.8,55.7z"/>
</g>
</svg>
