<?xml version="1.0" encoding="utf-8"?>
<!-- Generator: Adobe Illustrator 17.1.0, SVG Export Plug-In . SVG Version: 6.00 Build 0)  -->
<!DOCTYPE svg PUBLIC "-//W3C//DTD SVG 1.1//EN" "http://www.w3.org/Graphics/SVG/1.1/DTD/svg11.dtd">
<svg version="1.1" id="Layer_1" xmlns="http://www.w3.org/2000/svg" xmlns:xlink="http://www.w3.org/1999/xlink" x="0px" y="0px"
	 viewBox="0 0 100 100" enable-background="new 0 0 100 100" xml:space="preserve">
<g>
	<path d="M92,60.3h-5.3c-0.9,3.1-2.1,6.1-3.7,8.8l4.9,4.9c3.1,3.1,3.1,8.2,0,11.3l-2.8,2.8c-3.1,3.1-8.2,3.1-11.3,0l-4.9-4.9
		c-2.7,1.6-5.7,2.8-8.8,3.6V92c0,4.4-3.6,8-8,8h-4c-4.4,0-8-3.6-8-8v-5.1c-3.1-0.8-6-2.1-8.8-3.6l-4.9,4.9c-3.1,3.1-8.2,3.1-11.3,0
		l-2.8-2.8C9,82.2,9,77.1,12.1,74l4.9-4.9c-1.6-2.8-2.8-5.7-3.7-8.8H8c-4.4,0-8-3.6-8-8v-4c0-4.4,3.6-8,8-8h5.2c0.8-3.1,2-6,3.5-8.7
		l-4.7-4.7c-3.1-3.1-3.1-8.2,0-11.3l2.8-2.8c3.1-3.1,8.2-3.1,11.3,0l4.6,4.6c2.8-1.6,5.9-2.9,9.1-3.8V8c0-4.4,3.6-8,8-8h4
		c4.4,0,8,3.6,8,8v5.4c3.2,0.9,6.3,2.2,9.1,3.8l4.6-4.6c3.1-3.1,8.2-3.1,11.3,0l2.8,2.8c3.1,3.1,3.1,8.2,0,11.3l-4.7,4.7
		c1.5,2.7,2.7,5.7,3.6,8.7H92c4.4,0,8,3.6,8,8v4C100,56.7,96.4,60.3,92,60.3z M50,28.3c-12.2,0-22.1,9.9-22.1,22.1
		c0,12.2,9.9,22.1,22.1,22.1s22.1-9.9,22.1-22.1C72.1,38.2,62.2,28.3,50,28.3z M50,60.1c-5.5,0-10-4.5-10-10c0-5.5,4.5-10,10-10
		c5.5,0,10,4.5,10,10C60,55.7,55.5,60.1,50,60.1z"/>
</g>
</svg>
