<?xml version="1.0" encoding="utf-8"?>
<!-- Generator: Adobe Illustrator 17.1.0, SVG Export Plug-In . SVG Version: 6.00 Build 0)  -->
<!DOCTYPE svg PUBLIC "-//W3C//DTD SVG 1.1//EN" "http://www.w3.org/Graphics/SVG/1.1/DTD/svg11.dtd">
<svg version="1.1" id="Layer_1" xmlns="http://www.w3.org/2000/svg" xmlns:xlink="http://www.w3.org/1999/xlink" x="0px" y="0px"
	 viewBox="0 0 1190.6 841.9" enable-background="new 0 0 1190.6 841.9" xml:space="preserve">
<g>
	<path d="M429.6,481.9c0,20.3,16.8,37,37.9,37h184.3c20.3,0,37.9,16.8,37.9,37.9v24.7c0,20.3-16.8,37.9-37.9,37.9H521.3
		c-20.3,0-50.3,11.5-65.2,24.7l-89,79.3c-15,14.1-28.2,7.9-28.2-12.3v-54.7c0-20.3-16.8-37.9-37.9-37.9h-23.8
		c-20.3,0-37.9-16.8-37.9-37.9V301.2c0-20.3,16.8-37.9,37.9-37.9h113.7c20.3,0,37.9,16.8,37.9,37.9v180.7H429.6z"/>
	<path d="M911.8,107.2c20.3,0,37.9,16.8,37.9,37.9v302.4c0,20.3-16.8,37.9-37,37.9s-37,16.8-37,37v54.7c0,20.3-12.3,26.4-28.2,12.3
		l-88.2-79.3c-15-14.1-45-24.7-65.2-24.7H501.9c-20.3,0-37.9-16.8-37.9-37.9V144.2c0-20.3,16.8-37.9,37.9-37.9
		C501.9,107.2,911.8,107.2,911.8,107.2z"/>
</g>
</svg>
