<?xml version="1.0" encoding="utf-8"?>
<!-- Generator: Adobe Illustrator 17.1.0, SVG Export Plug-In . SVG Version: 6.00 Build 0)  -->
<!DOCTYPE svg PUBLIC "-//W3C//DTD SVG 1.1//EN" "http://www.w3.org/Graphics/SVG/1.1/DTD/svg11.dtd">
<svg version="1.1" id="Your_Icon" xmlns="http://www.w3.org/2000/svg" xmlns:xlink="http://www.w3.org/1999/xlink" x="0px" y="0px"
	 viewBox="0 0 100 100" enable-background="new 0 0 100 100" xml:space="preserve">
<g>
	<path d="M83.4,95H16.6c-2.1,0-3.8-1.7-3.8-3.8s1.7-3.8,3.8-3.8h66.8c2.1,0,3.8,1.7,3.8,3.8S85.5,95,83.4,95z"/>
</g>
<g>
	<g>
		<path d="M86.1,16.9L75.2,6.1c-1.4-1.4-4-1.4-5.4,0L60,15.9l-38,38c-0.3,0.3-0.6,0.8-0.8,1.2l-8.1,19c-0.6,1.4-0.3,3.1,0.8,4.2
			c0.7,0.7,1.7,1.1,2.7,1.1c0.5,0,1-0.1,1.5-0.3l19-8.1c0.4-0.2,0.9-0.5,1.2-0.8l38-38l9.8-9.8c0.7-0.7,1.1-1.7,1.1-2.7
			C87.2,18.6,86.8,17.7,86.1,16.9z M33.4,64.2l-9.5,4.1l4.1-9.5l33.9-33.9l5.4,5.4L33.4,64.2z M71.1,26.5L71.1,26.5
			c-0.1,0.1-0.2,0.2-0.3,0.3L71.1,26.5L65.7,21l-0.3,0.3c0.1-0.1,0.2-0.2,0.3-0.3l0,0l6.8-6.8l5.4,5.4L71.1,26.5z"/>
		<path d="M65.7,21l-0.3,0.3C65.5,21.2,65.6,21.1,65.7,21L65.7,21z"/>
		<path d="M71.2,26.5c-0.1,0.1-0.2,0.2-0.3,0.3L71.2,26.5L71.2,26.5z"/>
	</g>
	<g>
		<path d="M65.7,21l-0.3,0.3C65.5,21.2,65.6,21.1,65.7,21L65.7,21z"/>
		<path d="M71.2,26.5c-0.1,0.1-0.2,0.2-0.3,0.3L71.2,26.5L71.2,26.5z"/>
	</g>
</g>
</svg>
