<?xml version="1.0" encoding="utf-8"?>
<!-- Generator: Adobe Illustrator 17.1.0, SVG Export Plug-In . SVG Version: 6.00 Build 0)  -->
<!DOCTYPE svg PUBLIC "-//W3C//DTD SVG 1.1//EN" "http://www.w3.org/Graphics/SVG/1.1/DTD/svg11.dtd">
<svg version="1.1" id="Your_Icon" xmlns="http://www.w3.org/2000/svg" xmlns:xlink="http://www.w3.org/1999/xlink" x="0px" y="0px"
	 viewBox="0 0 100 100" enable-background="new 0 0 100 100" xml:space="preserve">
<g>
	<path d="M85.2,95H14.8c-2.2,0-4-1.8-4-4V67.9c0-2.2,1.8-4,4-4s4,1.8,4,4v19h62.5v-19c0-2.2,1.8-4,4-4s4,1.8,4,4V91
		C89.2,93.2,87.4,95,85.2,95z"/>
</g>
<g>
	<g>
		<path d="M69.8,57l-17,17.1c-0.5,0.5-1,0.8-1.6,1c-0.1,0-0.3,0.1-0.4,0.1c-0.2,0.1-0.5,0.1-0.8,0.1c-0.7,0-1.3-0.2-1.8-0.5
			c-0.1-0.1-0.2-0.1-0.3-0.2c-0.1-0.1-0.2-0.2-0.3-0.2c-0.1-0.1-0.2-0.2-0.3-0.3L30.2,57c-1.6-1.6-1.6-4.1,0-5.7
			c1.6-1.6,4.1-1.6,5.7,0L46,61.5V19c0-2.2,1.8-4,4-4c2.2,0,4,1.8,4,4v42.5l10.2-10.2c1.6-1.6,4.1-1.6,5.7,0
			C71.4,52.8,71.4,55.4,69.8,57z"/>
	</g>
</g>
</svg>
