<?xml version="1.0" encoding="utf-8"?>
<!-- Generator: Adobe Illustrator 17.1.0, SVG Export Plug-In . SVG Version: 6.00 Build 0)  -->
<!DOCTYPE svg PUBLIC "-//W3C//DTD SVG 1.1//EN" "http://www.w3.org/Graphics/SVG/1.1/DTD/svg11.dtd">
<svg version="1.1" id="Layer_1" xmlns="http://www.w3.org/2000/svg" xmlns:xlink="http://www.w3.org/1999/xlink" x="0px" y="0px"
	 viewBox="-9.1 0 118.2 100" enable-background="new -9.1 0 118.2 100" xml:space="preserve">
<path d="M71.3,27.2c0,11.7-9.5,28-21.3,28s-21.3-16.2-21.3-28S38.3,5.9,50,5.9S71.3,15.4,71.3,27.2z"/>
<path d="M66.1,49.3c-4.3,5.5-9.9,9.4-16.1,9.4c-6.2,0-11.8-3.9-16.1-9.4c-13.7,5.6-23.3,17.3-23.3,25.2c0,10.8,17.6,19.6,39.4,19.6
	s39.4-8.8,39.4-19.6C89.4,66.6,79.8,54.9,66.1,49.3z"/>
<path d="M71.3,27.2c0,11.7-9.5,28-21.3,28s-21.3-16.2-21.3-28S38.3,5.9,50,5.9S71.3,15.4,71.3,27.2z"/>
<path d="M74.1,27.2c0,4.5-1.3,9.8-3.7,14.7c2.3,1.8,4.9,2.9,7.6,2.9c9.3,0,16.8-12.8,16.8-22.1c0-9.3-7.5-16.8-16.8-16.8
	c-4.2,0-8.1,1.6-11,4.2C71.4,14.4,74.1,20.5,74.1,27.2z"/>
<path d="M109.1,60.1c0-6.3-7.6-15.5-18.4-19.9c-3.4,4.4-7.8,7.4-12.7,7.4c-3.2,0-6.2-1.3-8.8-3.4c-0.5,0.9-1.1,1.8-1.6,2.7
	c13.5,5.7,24.2,17.3,24.6,27C102.2,71.3,109.1,66.1,109.1,60.1z"/>
<path d="M33,10.1c-3-2.6-6.8-4.2-11-4.2c-9.3,0-16.8,7.5-16.8,16.8c0,9.3,7.5,22.1,16.8,22.1c2.7,0,5.3-1.1,7.6-2.9
	c-2.4-4.9-3.7-10.2-3.7-14.7C25.9,20.5,28.6,14.4,33,10.1z"/>
<path d="M32.5,46.9c-0.6-0.9-1.1-1.8-1.6-2.7c-2.6,2.1-5.6,3.4-8.8,3.4c-4.9,0-9.3-3.1-12.7-7.4C-1.5,44.6-9.1,53.8-9.1,60.1
	c0,6,6.9,11.2,16.9,13.7C8.3,64.2,18.9,52.5,32.5,46.9z"/>
<path d="M66.1,49.3c-4.3,5.5-9.9,9.4-16.1,9.4c-6.2,0-11.8-3.9-16.1-9.4c-13.7,5.6-23.3,17.3-23.3,25.2c0,10.8,17.6,19.6,39.4,19.6
	s39.4-8.8,39.4-19.6C89.4,66.6,79.8,54.9,66.1,49.3z"/>
</svg>
