<?xml version="1.0" encoding="utf-8"?>
<!-- Generator: Adobe Illustrator 17.1.0, SVG Export Plug-In . SVG Version: 6.00 Build 0)  -->
<!DOCTYPE svg PUBLIC "-//W3C//DTD SVG 1.1//EN" "http://www.w3.org/Graphics/SVG/1.1/DTD/svg11.dtd">
<svg version="1.1" id="Layer_1" xmlns="http://www.w3.org/2000/svg" xmlns:xlink="http://www.w3.org/1999/xlink" x="0px" y="0px"
	 viewBox="0 0 100 100" enable-background="new 0 0 100 100" xml:space="preserve">
<path d="M87.4,49.9v32.7L64.9,56.9l8.2-7h-8L50.7,62.2l-32.7-28h37.9v-5.2H8.8v62.9h83.8V49.9H87.4z M14,37.6l22.5,19.3L14,82.6
	V37.6z M17.5,86.6l23-26.3l10.2,8.8l10.2-8.8l23,26.3H17.5z M66.4,34.2h-5.2V21.1C61.2,13.9,67.1,8,74.3,8c7.2,0,13.1,5.9,13.1,13.1
	v21c0,2.1-0.8,4.1-2.3,5.6c-3,3-8.2,3-11.1,0c-1.5-1.5-2.3-3.5-2.3-5.6V18.5h5.2v23.6c0,0.7,0.3,1.4,0.8,1.9c1,1,2.7,1,3.7,0
	c0.5-0.5,0.8-1.2,0.8-1.9v-21c0-4.3-3.5-7.9-7.9-7.9c-4.3,0-7.9,3.5-7.9,7.9V34.2z"/>
</svg>
