<?xml version="1.0" encoding="utf-8"?>
<!-- Generator: Adobe Illustrator 17.1.0, SVG Export Plug-In . SVG Version: 6.00 Build 0)  -->
<!DOCTYPE svg PUBLIC "-//W3C//DTD SVG 1.1//EN" "http://www.w3.org/Graphics/SVG/1.1/DTD/svg11.dtd">
<svg version="1.1" id="Calque_1" xmlns="http://www.w3.org/2000/svg" xmlns:xlink="http://www.w3.org/1999/xlink" x="0px" y="0px"
	 viewBox="0 0 100 100" enable-background="new 0 0 100 100" xml:space="preserve">
<g id="Captions">
</g>
<g>
	<path d="M83.4,29.4l5.8-5.8L83,17.4l-5.8,5.8c-7.4-6-16.9-9.6-27.1-9.6C26.2,13.6,6.8,33,6.8,56.8C6.8,80.6,26.2,100,50,100
		s43.2-19.4,43.2-43.2C93.2,46.4,89.5,36.9,83.4,29.4z M53.1,61c-0.9,0.9-2,1.3-3.1,1.3c-1.1,0-2.3-0.4-3.1-1.3L33.6,47.7
		c-1.7-1.7-1.7-4.5,0-6.3c1.7-1.7,4.5-1.7,6.3,0L50,51.6l16.8-16.8c1.7-1.7,4.5-1.7,6.3,0c1.7,1.7,1.7,4.5,0,6.3L53.1,61z"/>
	<path d="M44.5,11.1h11.1c3.1,0,5.5-2.5,5.5-5.5S58.6,0,55.5,0H44.5c-3.1,0-5.5,2.5-5.5,5.5S41.4,11.1,44.5,11.1z"/>
</g>
</svg>
